<svg xmlns="http://www.w3.org/2000/svg" width="65" height="66" fill="none" viewBox="0 0 65 66">
  <circle cx="32.5" cy="32.734" r="32.5" fill="#0156FF"/>
  <g clip-path="url(#a)">
    <path fill="#fff" d="M35.82 44.882 33 47.702l-2.82-2.82c-5.543-1.28-9.68-6.25-9.68-12.18 0-6.9 5.6-12.5 12.5-12.5s12.5 5.6 12.5 12.5c0 5.93-4.138 10.9-9.68 12.18Zm-10.291-7.91c1.835 2.738 4.59 4.48 7.671 4.48 3.08 0 5.836-1.74 7.67-4.48a11.21 11.21 0 0 0-7.67-3.02 11.21 11.21 0 0 0-7.671 3.02ZM33 31.452a3.75 3.75 0 1 0 0-7.5 3.75 3.75 0 0 0 0 7.5Z"/>
  </g>
  <defs>
    <clipPath id="a">
      <path fill="#fff" d="M18 17.702h30v30H18z"/>
    </clipPath>
  </defs>
</svg>
