<svg xmlns="http://www.w3.org/2000/svg" width="65" height="66" fill="none" viewBox="0 0 65 66">
  <circle cx="32.5" cy="32.734" r="32.5" fill="#0156FF"/>
  <g clip-path="url(#a)">
    <path fill="#fff" d="M45.205 21.229a.787.787 0 0 0-1.484.518c1.208 3.471-1.19 6.064-3.017 7.452l-.738-1.058c-.249-.355-.804-.65-1.235-.655l-4.145.018a2.81 2.81 0 0 0-1.426.44l-12.212 8.562a1.313 1.313 0 0 0-.321 1.826l5.55 7.94c.416.592 1.08.52 1.673.107l12.212-8.565c.35-.248.757-.784.9-1.193l1.297-4.089c.143-.408.056-1.03-.193-1.385l-.45-.645c2.455-1.881 5.003-5.205 3.589-9.273Zm-5.683 12.165a2.09 2.09 0 0 1-2.912-.515 2.098 2.098 0 0 1 .514-2.92 2.09 2.09 0 0 1 2.428.023 8.017 8.017 0 0 1-.642.357.788.788 0 0 0 .337 1.5.788.788 0 0 0 .334-.078c.252-.12.522-.26.805-.429a2.1 2.1 0 0 1-.864 2.062Z"/>
  </g>
  <defs>
    <clipPath id="a">
      <path fill="#fff" d="M20 20.702h26v26H20z"/>
    </clipPath>
  </defs>
</svg>
