<svg xmlns="http://www.w3.org/2000/svg" width="22" height="22" fill="none" viewBox="0 0 22 22">
  <path fill="#fff" d="M11 8.136A2.87 2.87 0 0 0 8.136 11 2.87 2.87 0 0 0 11 13.864 2.87 2.87 0 0 0 13.864 11 2.87 2.87 0 0 0 11 8.136ZM19.59 11c0-1.186.01-2.361-.056-3.545-.067-1.375-.38-2.595-1.386-3.6-1.008-1.008-2.226-1.32-3.601-1.386-1.186-.067-2.361-.056-3.545-.056-1.186 0-2.361-.011-3.545.056-1.375.066-2.595.38-3.6 1.385C2.848 4.862 2.536 6.08 2.47 7.455 2.404 8.641 2.415 9.816 2.415 11c0 1.184-.011 2.361.056 3.545.066 1.375.38 2.595 1.385 3.6 1.008 1.008 2.226 1.32 3.601 1.387 1.186.066 2.361.055 3.545.055 1.186 0 2.361.011 3.545-.055 1.375-.067 2.595-.38 3.6-1.386 1.008-1.008 1.32-2.226 1.387-3.601.068-1.184.055-2.359.055-3.545ZM11 15.406A4.4 4.4 0 0 1 6.593 11 4.4 4.4 0 0 1 11 6.594 4.4 4.4 0 0 1 15.406 11 4.4 4.4 0 0 1 11 15.406Zm4.587-7.964a1.028 1.028 0 1 1 0-2.058 1.028 1.028 0 1 1 0 2.058Z" opacity=".5"/>
</svg>
