<svg xmlns="http://www.w3.org/2000/svg" width="34" height="22" fill="none" viewBox="0 0 34 22">
  <g clip-path="url(#a)">
    <path fill="#D8E3F3" d="M.03 2.766C.03 1.25 1.271.021 2.804.021h27.762c1.533 0 2.776 1.23 2.776 2.745v16.468c0 1.516-1.243 2.744-2.776 2.744H2.805C1.272 21.979.03 20.75.03 19.235V2.766Z"/>
    <path fill="#3362AB" d="M28.7 6.904h-1.745c-.527 0-.933.16-1.177.682L22.45 15.09h2.354s.406-1.003.487-1.244h2.882c.081.281.284 1.204.284 1.204h2.11l-1.866-8.146Zm-2.76 5.257c.204-.482.894-2.287.894-2.287 0 .04.203-.482.284-.763l.162.723s.447 1.966.528 2.367H25.94v-.04Zm-3.327.242c0 1.686-1.543 2.81-3.937 2.81-1.015 0-1.99-.201-2.517-.442l.325-1.846.284.12c.73.322 1.218.442 2.11.442.65 0 1.34-.24 1.34-.803 0-.36-.284-.601-1.177-1.003-.852-.401-1.989-1.043-1.989-2.207 0-1.605 1.583-2.688 3.815-2.688.853 0 1.583.16 2.03.361l-.325 1.766-.162-.16a4.404 4.404 0 0 0-1.705-.322c-.852.04-1.258.401-1.258.722 0 .361.487.642 1.258 1.003 1.299.602 1.908 1.284 1.908 2.247Z"/>
    <path fill="#F9B50B" d="m2.806 6.986.04-.16h3.49c.488 0 .853.16.975.682l.771 3.61c-.771-1.925-2.557-3.49-5.276-4.132Z"/>
    <path fill="#3362AB" d="m12.993 6.906-3.53 8.146H7.066L5.038 8.23c1.461.923 2.679 2.367 3.125 3.37l.244.843 2.192-5.577h2.394v.04Zm.933-.04h2.233l-1.42 8.186h-2.233l1.42-8.186Z"/>
  </g>
  <defs>
    <clipPath id="a">
      <path fill="#fff" d="M.03.021h33.314v21.957H.03z"/>
    </clipPath>
  </defs>
</svg>
