<svg xmlns="http://www.w3.org/2000/svg" width="35" height="22" fill="none" viewBox="0 0 35 22">
  <g clip-path="url(#a)">
    <path fill="#D4DEF7" d="M.729 2.766C.729 1.25 1.97.021 3.505.021h27.761c1.534 0 2.777 1.23 2.777 2.745v16.468c0 1.516-1.243 2.744-2.777 2.744H3.505c-1.534 0-2.776-1.228-2.776-2.744V2.766Z"/>
    <path fill="#2557D6" d="M25.313 6.794 24.67 8.2h1.293l-.649-1.405Zm-7.438.87c.122-.056.193-.18.193-.334a.32.32 0 0 0-.196-.312c-.111-.057-.281-.063-.445-.063h-1.153v.783h1.138c.182 0 .335-.003.463-.073Zm-14.777-.87L2.461 8.2H3.74l-.642-1.405Zm29.672 9h-1.809v-.756h1.802c.178 0 .303-.02.379-.087a.296.296 0 0 0 .11-.23.277.277 0 0 0-.114-.233c-.068-.054-.167-.078-.33-.078-.88-.027-1.977.024-1.977-1.091 0-.511.361-1.05 1.344-1.05h1.866v-.7h-1.733c-.523 0-.904.112-1.173.287v-.288h-2.563c-.41 0-.891.092-1.119.288v-.288h-4.578v.288c-.364-.236-.98-.288-1.263-.288h-3.02v.288c-.288-.251-.929-.288-1.32-.288h-3.38l-.772.753-.725-.753H7.347v4.919H12.3l.797-.765.75.765 3.054.002v-1.157h.3c.405.006.883-.009 1.304-.173v1.328h2.519v-1.282h.121c.155 0 .17.005.17.145v1.136h7.651c.486 0 .993-.111 1.274-.314v.314h2.427c.505 0 .998-.063 1.374-.226v-.917c-.228.3-.671.451-1.271.451Zm-15.529-1.161h-1.169v1.182h-1.82L13.1 14.648l-1.2 1.167H8.19V12.29h3.767l1.152 1.156L14.3 12.29h2.993c.743 0 1.578.185 1.578 1.162 0 .979-.812 1.18-1.631 1.18Zm5.62-.16c.131.172.15.333.154.643v.7h-.94v-.442c0-.212.023-.526-.151-.69-.137-.126-.346-.156-.688-.156h-1v1.287h-.941V12.29h2.162c.474 0 .82.02 1.127.167.295.16.481.38.481.782 0 .563-.417.85-.664.938.209.07.38.193.46.296Zm3.868-1.454h-2.193v.641h2.14v.72h-2.14v.7l2.193.004v.731h-3.126V12.29h3.126v.73Zm2.406 2.796h-1.824v-.756h1.817c.178 0 .304-.021.383-.087a.3.3 0 0 0 .11-.23.291.291 0 0 0-.114-.233c-.072-.054-.17-.078-.334-.078-.875-.027-1.972.024-1.972-1.091 0-.512.357-1.05 1.339-1.05h1.877v.75H28.7c-.17 0-.28.006-.375.064-.103.057-.14.142-.14.254 0 .133.086.223.204.262.1.031.205.04.365.04l.504.013c.508.01.857.09 1.07.283.182.17.28.384.28.747 0 .758-.527 1.112-1.472 1.112Zm-7.263-2.739c-.113-.06-.28-.064-.447-.064h-1.153v.792h1.138c.182 0 .337-.006.462-.073a.371.371 0 0 0 .194-.338.33.33 0 0 0-.194-.317Zm10.464-.064c-.17 0-.284.006-.38.064-.098.057-.136.142-.136.254 0 .133.083.223.205.262.099.031.204.04.36.04l.508.012c.512.012.854.091 1.063.284.038.027.06.057.087.087v-1.003h-1.707Zm-15.063 0h-1.22v.898h1.21c.36 0 .583-.16.583-.465 0-.309-.235-.433-.573-.433Zm-8.15 0v.641h2.057v.72H9.124v.7h2.302l1.07-1.033-1.024-1.028H9.124Zm6.013 2.465v-2.826l-1.438 1.39 1.438 1.436ZM9.202 9.818v.607h7.825l-.004-1.284h.151c.106.003.137.012.137.17v1.114h4.047v-.299c.326.158.834.3 1.502.3h1.703l.364-.783h.808l.356.782h3.28v-.743l.497.743h2.63V5.511h-2.602v.58l-.365-.58h-2.67v.58l-.334-.58h-3.606c-.604 0-1.134.076-1.563.287V5.51h-2.489v.287c-.273-.218-.644-.287-1.057-.287H8.72l-.61 1.27-.627-1.27H4.62v.58l-.315-.58H1.863L.729 7.848v1.869l1.677-3.524h1.391L5.39 9.529V6.193h1.528l1.226 2.39 1.126-2.39h1.56v3.524h-.96l-.004-2.76-1.358 2.76h-.823L6.324 6.954v2.763H4.419l-.36-.786H2.11l-.363.786H.729v.709h1.6l.36-.783h.808l.36.783h3.149v-.599l.28.601h1.635l.281-.61Zm12.33-3.214c.302-.282.777-.411 1.422-.411h.907v.755h-.888c-.342 0-.535.045-.72.208-.16.149-.27.43-.27.799 0 .377.084.65.258.827.144.14.406.182.652.182h.421l1.32-2.771h1.403l1.586 3.333V6.193h1.426l1.646 2.454V6.193h.96v3.524h-1.328l-1.775-2.645v2.645h-1.907l-.365-.786h-1.945l-.354.786h-1.096c-.455 0-1.031-.091-1.358-.39-.329-.3-.5-.705-.5-1.345 0-.523.102-1 .505-1.378Zm-1.927-.411h.956v3.524h-.956V6.193Zm-4.308 0h2.154c.479 0 .831.011 1.134.168.296.158.474.388.474.78 0 .563-.417.853-.66.94.205.07.38.194.464.297.132.175.155.332.155.646v.693h-.945l-.003-.445c0-.212.022-.517-.148-.686-.137-.124-.346-.151-.683-.151h-1.005v1.282h-.937V6.193Zm-3.775 0h3.128v.733h-2.192v.636h2.14v.722h-2.14v.704h2.192v.729h-3.128V6.193Z"/>
  </g>
  <defs>
    <clipPath id="a">
      <path fill="#fff" d="M.729.021h33.314v21.957H.729z"/>
    </clipPath>
  </defs>
</svg>
