<svg xmlns="http://www.w3.org/2000/svg" width="35" height="22" fill="none" viewBox="0 0 35 22">
  <g clip-path="url(#a)">
    <path fill="#FCE0CF" d="M.657 2.766C.657 1.25 1.928.021 3.497.021h28.392c1.568 0 2.84 1.23 2.84 2.745v16.468c0 1.516-1.272 2.744-2.84 2.744H3.497c-1.569 0-2.84-1.228-2.84-2.744V2.766Z"/>
    <path fill="#F26E21" d="M20.943 10.985a2.24 2.24 0 0 0-.687-1.625 2.4 2.4 0 0 0-1.685-.664h-.01c-1.327 0-2.38 1.018-2.38 2.302 0 1.271 1.066 2.302 2.38 2.302 1.33 0 2.382-1.019 2.382-2.302v-.013Z"/>
    <path fill="#2B2B2B" d="M15.74 11.972c-.357.345-.685.48-1.04.486-.861-.007-1.495-.624-1.495-1.504 0-.443.174-.806.448-1.116.258-.236.59-.39.972-.39.412 0 .733.134 1.099.488V8.918a2.365 2.365 0 0 0-1.1-.266 2.701 2.701 0 0 0-1.551.625 2.244 2.244 0 0 0-.336.355A2.185 2.185 0 0 0 12.243 11c0 1.283 1.054 2.257 2.382 2.257h.046c.366 0 .687-.088 1.099-.265l-.03-1.019c-.016.015.014.029 0 .043v-.043Zm8.21-2.686-1.037 2.465-1.19-2.922h-.962l1.877 4.471h.504l1.97-4.47h-.962l-.2.456Zm1.527 1.491v2.39h2.519v-.708h-1.603v-1.195h1.558v-.752h-1.558v-.93h1.603v-.753h-2.518v1.948ZM4.779 8.83H3.496v4.339H4.78c.686 0 1.19-.177 1.602-.487A2.162 2.162 0 0 0 7.205 11c0-1.284-.961-2.17-2.426-2.17Zm1.053 3.276c-.275.222-.641.354-1.191.354h-.275V9.583h.23c.549 0 .915.088 1.19.354.32.265.504.664.504 1.063.046.398-.138.84-.458 1.106ZM8.488 8.83h-.87v4.338h.87V8.829Zm2.198 1.682c-.549-.177-.687-.31-.687-.531 0-.266.275-.487.642-.487.274 0 .503.089.732.354l.458-.575a2.035 2.035 0 0 0-1.328-.487c-.778 0-1.42.531-1.42 1.24 0 .62.276.885 1.1 1.194.366.133.504.178.595.266a.485.485 0 0 1 .275.443c0 .354-.275.62-.687.62-.413 0-.779-.222-.962-.576l-.55.531c.413.576.917.841 1.558.841.915 0 1.556-.575 1.556-1.416 0-.753-.274-1.063-1.282-1.417Zm19.784.841c.686-.133 1.053-.576 1.053-1.24 0-.796-.596-1.284-1.603-1.284h-1.328v4.339h.87V11.44h.137l1.237 1.727h1.053l-1.42-1.815Zm-.733-.532h-.275V9.493h.274c.55 0 .87.222.87.665 0 .442-.32.663-.87.663Z"/>
  </g>
  <defs>
    <clipPath id="a">
      <path fill="#fff" d="M.657.021h34.071v21.957H.657z"/>
    </clipPath>
  </defs>
</svg>
