<svg xmlns="http://www.w3.org/2000/svg" width="36" height="22" fill="none" viewBox="0 0 36 22">
  <g clip-path="url(#a)">
    <path fill="#CCDEFF" d="M.958 2.766C.958 1.25 2.229.021 3.798.021H32.19c1.568 0 2.84 1.23 2.84 2.745v16.468c0 1.516-1.272 2.744-2.84 2.744H3.797c-1.568 0-2.839-1.228-2.839-2.744V2.766Z"/>
    <path fill="#003087" d="M8.603 7.924c-.356-.236-.82-.355-1.393-.355H4.992c-.176 0-.273.085-.291.255L3.8 13.29a.175.175 0 0 0 .041.147.172.172 0 0 0 .139.067h1.053c.185 0 .287-.084.305-.254l.25-1.474a.258.258 0 0 1 .097-.175.435.435 0 0 1 .208-.087c.083-.013.161-.02.236-.02.073 0 .161.005.263.014.102.009.166.013.194.013.795 0 1.419-.216 1.871-.65.453-.433.68-1.034.68-1.802 0-.527-.178-.91-.534-1.146ZM7.459 9.566c-.046.312-.166.518-.36.616-.194.099-.471.148-.832.148l-.457.013.235-1.434c.019-.098.079-.147.18-.147h.264c.37 0 .638.051.804.154.166.103.222.32.166.65Z"/>
    <path fill="#009CDE" d="M32.009 7.57h-1.026c-.102 0-.162.048-.18.147l-.901 5.574-.014.027c0 .045.018.087.055.127a.18.18 0 0 0 .139.06h.915c.175 0 .272-.084.291-.254l.901-5.48v-.014c0-.125-.06-.188-.18-.188Z"/>
    <path fill="#003087" d="M19.616 9.728a.187.187 0 0 0-.055-.127.167.167 0 0 0-.125-.06h-1.068a.296.296 0 0 0-.25.133l-1.468 2.09-.61-2.01c-.047-.142-.148-.214-.305-.214h-1.04a.165.165 0 0 0-.125.06.186.186 0 0 0-.055.128c0 .018.09.281.27.79l.582 1.649c.208.59.317.902.326.938-.758 1-1.137 1.536-1.137 1.608 0 .116.06.174.18.174h1.068a.296.296 0 0 0 .25-.134l3.534-4.931c.019-.018.028-.05.028-.094Z"/>
    <path fill="#009CDE" d="M29.556 9.538h-1.054c-.13 0-.207.148-.235.443-.24-.358-.68-.536-1.317-.536-.665 0-1.232.24-1.698.723-.467.483-.7 1.05-.7 1.702 0 .527.16.947.478 1.26.319.313.746.469 1.282.469.268 0 .54-.054.818-.161.277-.107.494-.25.652-.429 0 .01-.01.05-.028.12a.703.703 0 0 0-.028.161c0 .144.06.215.18.215h.957c.175 0 .277-.085.305-.255l.568-3.497a.176.176 0 0 0-.041-.148.173.173 0 0 0-.139-.067Zm-1.809 2.64c-.236.224-.52.335-.853.335-.268 0-.485-.071-.651-.214-.166-.143-.25-.34-.25-.59 0-.33.116-.61.347-.837.23-.228.518-.342.86-.342.258 0 .473.074.644.221.17.148.256.35.256.61 0 .322-.117.594-.353.817Z"/>
    <path fill="#003087" d="M13.808 9.538h-1.053c-.13 0-.208.148-.236.443-.25-.358-.689-.536-1.317-.536-.665 0-1.232.24-1.698.723-.467.483-.7 1.05-.7 1.702 0 .527.16.947.478 1.26.319.313.746.469 1.282.469.259 0 .527-.054.804-.161.277-.107.5-.25.666-.429a.876.876 0 0 0-.056.281c0 .144.06.215.18.215h.957c.175 0 .277-.085.305-.255l.568-3.497a.177.177 0 0 0-.041-.148.173.173 0 0 0-.139-.067ZM12 12.185c-.236.22-.525.328-.866.328-.268 0-.483-.071-.645-.214-.162-.143-.243-.34-.243-.59 0-.33.116-.61.347-.837.23-.228.517-.342.86-.342.258 0 .473.074.644.221.171.148.256.35.256.61 0 .33-.117.605-.353.824Z"/>
    <path fill="#009CDE" d="M24.35 7.924c-.356-.236-.82-.355-1.393-.355h-2.204c-.185 0-.287.085-.305.255l-.901 5.467a.175.175 0 0 0 .041.147.172.172 0 0 0 .139.067h1.137c.11 0 .184-.058.221-.174l.25-1.554a.258.258 0 0 1 .097-.175.436.436 0 0 1 .208-.087c.083-.013.162-.02.236-.02.073 0 .161.005.263.014.102.009.166.013.194.013.795 0 1.419-.216 1.872-.65.452-.433.679-1.034.679-1.802 0-.527-.178-.91-.534-1.146Zm-1.42 2.205c-.204.133-.51.2-.916.2l-.443.014.235-1.434c.019-.098.079-.147.18-.147h.25c.203 0 .365.009.485.026.12.018.236.074.347.168.11.094.166.23.166.409 0 .375-.102.63-.305.764Z"/>
  </g>
  <defs>
    <clipPath id="a">
      <path fill="#fff" d="M.958.021h34.071v21.957H.958z"/>
    </clipPath>
  </defs>
</svg>
