<svg xmlns="http://www.w3.org/2000/svg" width="34" height="22" fill="none" viewBox="0 0 34 22">
  <g clip-path="url(#a)">
    <path fill="#CCEFFF" d="M.344 2.766C.344 1.25 1.587.021 3.12.021h27.762c1.533 0 2.776 1.23 2.776 2.745v16.468c0 1.516-1.243 2.744-2.776 2.744H3.12c-1.533 0-2.776-1.228-2.776-2.744V2.766Z"/>
    <path fill="#6C6BBD" d="M20.645 17.476h-7.287V4.529h7.287v12.947Z"/>
    <path fill="#EB001B" d="M13.825 11a8.188 8.188 0 0 1 3.18-6.473 8.353 8.353 0 0 0-5.146-1.76c-4.6 0-8.328 3.685-8.328 8.233 0 4.547 3.728 8.234 8.328 8.234 1.943 0 3.73-.658 5.147-1.76-1.938-1.508-3.181-3.848-3.181-6.474Z"/>
    <path fill="#0099DF" d="M30.472 11c0 4.547-3.728 8.234-8.328 8.234a8.355 8.355 0 0 1-5.147-1.76c1.938-1.508 3.181-3.848 3.181-6.474a8.188 8.188 0 0 0-3.18-6.473 8.355 8.355 0 0 1 5.146-1.76c4.6 0 8.328 3.685 8.328 8.233Z"/>
  </g>
  <defs>
    <clipPath id="a">
      <path fill="#fff" d="M.344.021h33.314v21.957H.344z"/>
    </clipPath>
  </defs>
</svg>
